{"title":"Non-Stop.2014.720p.BluRay.X264-AMIABLE","uid":10220523,"size":4692340410,"categoryP":"video","categoryS":"hd___movies","magnet":"?xt=urn:btih:028e7c7fa472507e0ee0b30b7bb9371f25fb2f38&amp;dn=Non-Stop.2014.720p.BluRay.X264-AMIABLE&amp;tr=udp%3A%2F%2Ftracker.openbittorrent.com%3A80&amp;tr=udp%3A%2F%2Fopen.demonii.com%3A1337&amp;tr=udp%3A%2F%2Ftracker.coppersurfer.tk%3A6969&amp;tr=udp%3A%2F%2Fexodus.desync.com%3A6969","seeders":3,"leechers":0,"uploader":"xxxlavalxxx","files":-1,"time":1401036894,"description":" &lt;a href=&quot;http://www.imdb.com/title/tt2024469/&quot; rel=&quot;nofollow&quot; target=&quot;_NEW&quot;&gt;http://www.imdb.com/title/tt2024469/&lt;/a&gt;\n\n\nAn air marshal springs into action during a transatlantic flight after receiving a series of text messages that put his fellow passengers at risk unless the airline transfers $150 million into an off-shore account.\n\nDirector: Jaume Collet-Serra\nWriters: John W. Richardson (screenplay), Christopher Roach (screenplay)\nStars: Liam Neeson, Julianne Moore, Scoot McNairy \nGenres: Action | Mystery | Thriller\nCountry: USA | France\nLanguage: English | German\n\n\n\nFormat                                   : Matroska\nFormat version                           : Version 2\nFile size                                : 4.37 GiB\nDuration                                 : 1h 46mn\nOverall bit rate                         : 5 868 Kbps\nWriting application                      : mkvmerge v6.6.0 ('The Edge Of The In Between') built on Dec 1 2013 17:55:00\nWriting library                          : libebml v1.3.0 + libmatroska v1.4.1\n\nVideo\nID                                       : 1\nFormat                                   : AVC\nFormat/Info                              : Advanced Video Codec\nFormat profile                           : &lt;a class=&quot;__cf_email__&quot; href=&quot;/cdn-cgi/l/email-protection&quot; data-cfemail=&quot;7d35141a153d3149534c&quot;&gt;[email&amp;#160;protected]&lt;/a&gt;&lt;script data-cfhash='f9e31' type=&quot;text/javascript&quot;&gt;\n/* &lt;![CDATA[ */!function(){try{var t=&quot;currentScript&quot;in document?document.currentScript:function(){for(var t=document.getElementsByTagName(&quot;script&quot;),e=t.length;e--;)if(t[e].getAttribute(&quot;data-cfhash&quot;))return t[e]}();if(t&amp;&amp;t.previousSibling){var e,r,n,i,c=t.previousSibling,a=c.getAttribute(&quot;data-cfemail&quot;);if(a){for(e=&quot;&quot;,r=parseInt(a.substr(0,2),16),n=2;a.length-n;n+=2)i=parseInt(a.substr(n,2),16)^r,e+=String.fromCharCode(i);e=document.createTextNode(e),c.parentNode.replaceChild(e,c)}t.parentNode.removeChild(t);}}catch(u){}}()/* ]]&gt; */&lt;/script&gt;\nFormat settings, CABAC                   : Yes\nFormat settings, ReFrames                : 5 frames\nCodec ID                                 : V_MPEG4/ISO/AVC\nDuration                                 : 1h 46mn\nBit rate                                 : 4 358 Kbps\nWidth                                    : 1 280 pixels\nHeight                                   : 536 pixels\nDisplay aspect ratio                     : 2.40:1\nFrame rate                               : 23.976 fps\nColor space                              : YUV\nChroma subsampling                       : 4:2:0\nBit depth                                : 8 bits\nScan type                                : Progressive\nBits/(Pixel*Frame)                       : 0.265\nStream size                              : 3.16 GiB (72%)\nWriting library                          : x264 core 142 r2431 ac76440\nEncoding settings                        : cabac=1 / ref=5 / deblock=1:-3:-3 / analyse=0x3:0x113 / me=umh / subme=8 / psy=1 / psy_rd=1.00:0.00 / mixed_ref=1 / me_range=16 / chroma_me=1 / trellis=1 / 8x8dct=1 / cqm=0 / deadzone=21,11 / fast_pskip=1 / chroma_qp_offset=-2 / threads=12 / lookahead_threads=2 / sliced_threads=0 / nr=0 / decimate=1 / interlaced=0 / bluray_compat=0 / constrained_intra=0 / bframes=3 / b_pyramid=2 / b_adapt=2 / b_bias=0 / direct=3 / weightb=1 / open_gop=0 / weightp=2 / keyint=240 / keyint_min=24 / scenecut=40 / intra_refresh=0 / rc_lookahead=50 / rc=2pass / mbtree=1 / bitrate=4358 / ratetol=1.0 / qcomp=0.60 / qpmin=0 / qpmax=69 / qpstep=4 / cplxblur=20.0 / qblur=0.5 / ip_ratio=1.40 / aq=1:1.00\nLanguage                                 : English\nDefault                                  : Yes\nForced                                   : No\n\nAudio\nID                                       : 2\nFormat                                   : DTS\nFormat/Info                              : Digital Theater Systems\nCodec ID                                 : A_DTS\nDuration                                 : 1h 46mn\nBit rate mode                            : Constant\nBit rate                                 : 1 510 Kbps\nChannel(s)                               : 6 channels\nChannel positions                        : Front: L C R, Side: L R, LFE\nSampling rate                            : 48.0 KHz\nBit depth                                : 24 bits\nCompression mode                         : Lossy\nStream size                              : 1.12 GiB (26%)\nLanguage                                 : English\nDefault                                  : Yes\nForced                                   : No\n\nText #1\nID                                       : 3\nFormat                                   : UTF-8\nCodec ID                                 : S_TEXT/UTF8\nCodec ID/Info                            : UTF-8 Plain Text\nTitle                                    : SDH\nLanguage                                 : English\nDefault                                  : No\nForced                                   : No\n\nText #2\nID                                       : 4\nFormat                                   : UTF-8\nCodec ID                                 : S_TEXT/UTF8\nCodec ID/Info                            : UTF-8 Plain Text\nLanguage                                 : English\nDefault                                  : No\nForced                                   : No\n\n\nscreens\n &lt;a href=&quot;\nhttp://i.imgur.com/hYlUjOv.jpg&quot; rel=&quot;nofollow&quot; target=&quot;_NEW&quot;&gt;\nhttp://i.imgur.com/hYlUjOv.jpg&lt;/a&gt; &lt;a href=&quot;\nhttp://i.imgur.com/IiY5LL1.jpg&quot; rel=&quot;nofollow&quot; target=&quot;_NEW&quot;&gt;\nhttp://i.imgur.com/IiY5LL1.jpg&lt;/a&gt; &lt;a href=&quot;\nhttp://i.imgur.com/5r8RW7E.jpg&quot; rel=&quot;nofollow&quot; target=&quot;_NEW&quot;&gt;\nhttp://i.imgur.com/5r8RW7E.jpg&lt;/a&gt; &lt;a href=&quot;\nhttp://i.imgur.com/UxzY87f.jpg&quot; rel=&quot;nofollow&quot; target=&quot;_NEW&quot;&gt;\nhttp://i.imgur.com/UxzY87f.jpg&lt;/a&gt; &lt;a href=&quot;\nhttp://i.imgur.com/vTb94Dz.jpg&quot; rel=&quot;nofollow&quot; target=&quot;_NEW&quot;&gt;\nhttp://i.imgur.com/vTb94Dz.jpg&lt;/a&gt; &lt;a href=&quot;\nhttp://i.imgur.com/MF9GYip.jpg&quot; rel=&quot;nofollow&quot; target=&quot;_NEW&quot;&gt;\nhttp://i.imgur.com/MF9GYip.jpg&lt;/a&gt;\n","torrent":{"xt":"urn:btih:028e7c7fa472507e0ee0b30b7bb9371f25fb2f38","amp;dn":"Non-Stop.2014.720p.BluRay.X264-AMIABLE","amp;tr":["udp%3A%2F%2Ftracker.openbittorrent.com%3A80","udp%3A%2F%2Fopen.demonii.com%3A1337","udp%3A%2F%2Ftracker.coppersurfer.tk%3A6969","udp%3A%2F%2Fexodus.desync.com%3A6969"],"infoHash":"028e7c7fa472507e0ee0b30b7bb9371f25fb2f38","infoHashBuffer":{"type":"Buffer","data":[2,142,124,127,164,114,80,126,14,224,179,11,123,185,55,31,37,251,47,56]},"announce":[],"urlList":[]}}